<svg width="52" height="52" viewBox="0 0 52 52" fill="none" xmlns="http://www.w3.org/2000/svg">
<path d="M0 14C0 6.268 6.26801 0 14 0H37.9539C45.6859 0 51.9539 6.26801 51.9539 14V37.9539C51.9539 45.6859 45.6859 51.9539 37.9539 51.9539H14C6.268 51.9539 0 45.6859 0 37.9539V14Z" fill="#D93636"/>
<path d="M24.9777 15.9839V17.9825" stroke="white" stroke-width="1.99861" stroke-linecap="round" stroke-linejoin="round"/>
<path d="M18.9818 15.9839V17.9825" stroke="white" stroke-width="1.99861" stroke-linecap="round" stroke-linejoin="round"/>
<path d="M18.9818 16.9832H17.9825C17.4525 16.9832 16.9441 17.1937 16.5693 17.5685C16.1945 17.9433 15.9839 18.4517 15.9839 18.9818V22.979C15.9839 24.5692 16.6156 26.0942 17.7401 27.2187C18.8645 28.3431 20.3896 28.9748 21.9797 28.9748C23.5699 28.9748 25.095 28.3431 26.2194 27.2187C27.3439 26.0942 27.9756 24.5692 27.9756 22.979V18.9818C27.9756 18.4517 27.765 17.9433 27.3902 17.5685C27.0154 17.1937 26.507 16.9832 25.977 16.9832H24.9777" stroke="white" stroke-width="1.99861" stroke-linecap="round" stroke-linejoin="round"/>
<path d="M21.9798 28.9748C21.9798 30.565 22.6115 32.0901 23.7359 33.2145C24.8603 34.339 26.3854 34.9707 27.9756 34.9707C29.5658 34.9707 31.0908 34.339 32.2153 33.2145C33.3397 32.0901 33.9714 30.565 33.9714 28.9748V25.9769" stroke="white" stroke-width="1.99861" stroke-linecap="round" stroke-linejoin="round"/>
<path d="M33.9714 25.9768C35.0752 25.9768 35.97 25.082 35.97 23.9782C35.97 22.8744 35.0752 21.9796 33.9714 21.9796C32.8676 21.9796 31.9728 22.8744 31.9728 23.9782C31.9728 25.082 32.8676 25.9768 33.9714 25.9768Z" stroke="white" stroke-width="1.99861" stroke-linecap="round" stroke-linejoin="round"/>
</svg>
