<svg width="52" height="52" viewBox="0 0 52 52" fill="none" xmlns="http://www.w3.org/2000/svg">
<path d="M0 14C0 6.268 6.26801 0 14 0H37.9539C45.6859 0 51.9539 6.26801 51.9539 14V37.9539C51.9539 45.6859 45.6859 51.9539 37.9539 51.9539H14C6.268 51.9539 0 45.6859 0 37.9539V14Z" fill="#D93636"/>
<path d="M29.9742 33.9715V17.9826C29.9742 17.4526 29.7636 16.9442 29.3888 16.5694C29.014 16.1946 28.5056 15.984 27.9756 15.984H23.9784C23.4483 15.984 22.9399 16.1946 22.5651 16.5694C22.1903 16.9442 21.9798 17.4526 21.9798 17.9826V33.9715" stroke="white" stroke-width="1.99861" stroke-linecap="round" stroke-linejoin="round"/>
<path d="M33.9714 19.9812H17.9825C16.8787 19.9812 15.9839 20.876 15.9839 21.9798V31.9729C15.9839 33.0767 16.8787 33.9715 17.9825 33.9715H33.9714C35.0752 33.9715 35.97 33.0767 35.97 31.9729V21.9798C35.97 20.876 35.0752 19.9812 33.9714 19.9812Z" stroke="white" stroke-width="1.99861" stroke-linecap="round" stroke-linejoin="round"/>
</svg>
