<svg width="44" height="44" viewBox="0 0 44 44" fill="none" xmlns="http://www.w3.org/2000/svg">
<path d="M0 14C0 6.268 6.26801 0 14 0H29.9793C37.7113 0 43.9793 6.26801 43.9793 14V29.9793C43.9793 37.7113 37.7113 43.9793 29.9793 43.9793H14C6.268 43.9793 0 37.7113 0 29.9793V14Z" fill="#D93636"/>
<path d="M28.9848 23.9883C30.4738 22.5293 31.9827 20.7806 31.9827 18.4921C31.9827 17.0345 31.4037 15.6365 30.3729 14.6058C29.3422 13.575 27.9442 12.996 26.4865 12.996C24.7278 12.996 23.4886 13.4956 21.9897 14.9946C20.4907 13.4956 19.2516 12.996 17.4928 12.996C16.0351 12.996 14.6371 13.575 13.6064 14.6058C12.5757 15.6365 11.9966 17.0345 11.9966 18.4921C11.9966 20.7905 13.4956 22.5393 14.9945 23.9883L21.9897 30.9835L28.9848 23.9883Z" fill="white" stroke="white" stroke-width="1.99861" stroke-linecap="round" stroke-linejoin="round"/>
</svg>
