<svg width="36" height="36" viewBox="0 0 36 36" fill="none" xmlns="http://www.w3.org/2000/svg">
<path d="M0 17.9924C0 8.0555 8.0555 0 17.9924 0C27.9294 0 35.9849 8.0555 35.9849 17.9924C35.9849 27.9294 27.9294 35.9849 17.9924 35.9849C8.0555 35.9849 0 27.9294 0 17.9924Z" fill="white" fill-opacity="0.2"/>
<path d="M16.5494 25.4912C16.6956 25.7445 16.906 25.9548 17.1593 26.1011C17.4126 26.2473 17.6999 26.3243 17.9924 26.3243C18.2849 26.3243 18.5723 26.2473 18.8256 26.1011C19.0789 25.9548 19.2892 25.7445 19.4355 25.4912" stroke="white" stroke-width="1.66633" stroke-linecap="round" stroke-linejoin="round"/>
<path d="M10.7122 20.7639C10.6034 20.8832 10.5315 21.0316 10.5055 21.1909C10.4794 21.3503 10.5002 21.5138 10.5653 21.6616C10.6305 21.8093 10.7372 21.935 10.8724 22.0232C11.0076 22.1115 11.1656 22.1585 11.3271 22.1586H24.6578C24.8192 22.1587 24.9772 22.1118 25.1126 22.0238C25.2479 21.9357 25.3547 21.8102 25.42 21.6625C25.4853 21.5148 25.5063 21.3514 25.4805 21.192C25.4546 21.0326 25.383 20.8842 25.2743 20.7648C24.1662 19.6225 22.9914 18.4086 22.9914 14.6601C22.9914 13.3343 22.4648 12.0628 21.5273 11.1253C20.5898 10.1878 19.3182 9.66113 17.9924 9.66113C16.6666 9.66113 15.3951 10.1878 14.4576 11.1253C13.5201 12.0628 12.9934 13.3343 12.9934 14.6601C12.9934 18.4086 11.8178 19.6225 10.7122 20.7639Z" stroke="white" stroke-width="1.66633" stroke-linecap="round" stroke-linejoin="round"/>
</svg>
