<svg width="52" height="52" viewBox="0 0 52 52" fill="none" xmlns="http://www.w3.org/2000/svg">
<path d="M0 14C0 6.268 6.26801 0 14 0H37.9539C45.6859 0 51.9539 6.26801 51.9539 14V37.9539C51.9539 45.6859 45.6859 51.9539 37.9539 51.9539H14C6.268 51.9539 0 45.6859 0 37.9539V14Z" fill="#D93636"/>
<path d="M32.9721 34.9708V32.9722C32.9721 31.9121 32.551 30.8954 31.8013 30.1457C31.0517 29.3961 30.035 28.975 28.9749 28.975H22.979C21.9189 28.975 20.9022 29.3961 20.1526 30.1457C19.403 30.8954 18.9818 31.9121 18.9818 32.9722V34.9708" stroke="white" stroke-width="1.99861" stroke-linecap="round" stroke-linejoin="round"/>
<path d="M25.977 24.9777C28.1846 24.9777 29.9742 23.1881 29.9742 20.9805C29.9742 18.7729 28.1846 16.9833 25.977 16.9833C23.7694 16.9833 21.9798 18.7729 21.9798 20.9805C21.9798 23.1881 23.7694 24.9777 25.977 24.9777Z" stroke="white" stroke-width="1.99861" stroke-linecap="round" stroke-linejoin="round"/>
</svg>
