<svg width="20" height="20" viewBox="0 0 20 20" fill="none" xmlns="http://www.w3.org/2000/svg">
<g clip-path="url(#clip0_97_1203)">
<path d="M18.1639 8.33175C18.5444 10.1991 18.2733 12.1405 17.3956 13.8322C16.518 15.5238 15.087 16.8634 13.3412 17.6277C11.5954 18.3919 9.64032 18.5345 7.80208 18.0318C5.96384 17.529 4.35351 16.4113 3.23963 14.865C2.12576 13.3186 1.57567 11.4372 1.6811 9.53433C1.78653 7.6315 2.54111 5.82233 3.819 4.40851C5.09689 2.99469 6.82084 2.06169 8.70337 1.7651C10.5859 1.46852 12.5132 1.82626 14.1639 2.77869" stroke="white" stroke-width="1.66633" stroke-linecap="round" stroke-linejoin="round"/>
<path d="M7.49854 9.16494L9.99804 11.6644L18.3297 3.33276" stroke="white" stroke-width="1.66633" stroke-linecap="round" stroke-linejoin="round"/>
</g>
<defs>
<clipPath id="clip0_97_1203">
<rect width="19.996" height="19.996" fill="white"/>
</clipPath>
</defs>
</svg>
